<svg xmlns="http://www.w3.org/2000/svg" id="Layer_2" data-name="Layer 2" viewBox="0 0 647.55 144.74"><defs><style>.cls-1{stroke-width:3.25px;fill:none;stroke:#231f20;stroke-miterlimit:10}.cls-3{fill:#231f20;stroke-width:0}</style></defs><g id="logo"><g id="ls"><path d="M205.96 86v11.23h-24.53V47.49h11.23v38.5h13.3ZM245.05 77.38c-.04 2.63-.53 5.12-1.47 7.49-.94 2.36-2.3 4.48-4.08 6.35-1.83 1.96-3.91 3.45-6.25 4.48a18.438 18.438 0 0 1-7.45 1.54h-.07c-2.58 0-5.05-.51-7.39-1.54s-4.45-2.52-6.32-4.48a20.486 20.486 0 0 1-4.04-6.35c-.96-2.36-1.46-4.86-1.5-7.49V47.43h11.23v29.75c0 1.2.21 2.34.63 3.41.42 1.07 1 2.01 1.74 2.81.74.8 1.59 1.44 2.57 1.9.98.47 2.03.7 3.14.7s2.15-.23 3.11-.7 1.81-1.1 2.54-1.9c.74-.8 1.31-1.74 1.74-2.81.42-1.07.64-2.21.64-3.41V47.43h11.23v29.95ZM265.03 86.07c1.11 0 2.15-.23 3.11-.7s1.8-1.1 2.54-1.91c.74-.8 1.31-1.74 1.74-2.81.42-1.07.63-2.21.63-3.41h11.23c0 2.68-.47 5.22-1.4 7.62a19.69 19.69 0 0 1-4.14 6.48c-1.83 1.92-3.91 3.39-6.25 4.41-2.34 1.03-4.82 1.54-7.45 1.54h-.07c-2.63 0-5.1-.51-7.42-1.54-2.32-1.02-4.41-2.5-6.28-4.41a20.585 20.585 0 0 1-4.04-6.32c-.96-2.34-1.46-4.8-1.5-7.39v-10.3c.04-2.67.54-5.19 1.47-7.55a19.56 19.56 0 0 1 4.08-6.35c1.87-1.92 3.97-3.39 6.28-4.41 2.32-1.02 4.79-1.54 7.42-1.54h.07c2.63 0 5.11.51 7.45 1.54s4.42 2.5 6.25 4.41c1.83 1.92 3.21 4.08 4.14 6.48.94 2.41 1.4 4.95 1.4 7.62h-11.23c0-1.21-.21-2.34-.63-3.41-.42-1.07-1-2.01-1.74-2.81-.74-.8-1.58-1.44-2.54-1.91s-2-.7-3.11-.7-2.16.23-3.14.7-1.84 1.1-2.57 1.91c-.74.8-1.32 1.74-1.74 2.81-.42 1.07-.63 2.2-.63 3.41v9.69c0 1.2.21 2.34.63 3.41.42 1.07 1 2 1.74 2.81.73.8 1.59 1.44 2.57 1.91.98.47 2.03.7 3.14.7ZM309.05 77.98h-9.23l-6.69 19.25h-12.1l17.25-49.74h12.3l17.25 49.74h-12.1l-6.68-19.25ZM355.63 81.79c0 .8-.06 1.58-.17 2.34-.11.76-.28 1.52-.5 2.27a15.54 15.54 0 0 1-2.14 4.34c-.94 1.34-2.05 2.49-3.34 3.44-1.29.96-2.72 1.7-4.28 2.24-1.56.53-3.21.8-4.95.8-2.14 0-4.13-.4-5.98-1.2-1.85-.8-3.48-1.91-4.88-3.31-1.4-1.4-2.51-3.04-3.31-4.91-.8-1.87-1.2-3.88-1.2-6.02h11.23c0 1.16.4 2.15 1.2 2.97.8.83 1.78 1.24 2.94 1.24.94 0 1.76-.28 2.47-.83.71-.56 1.2-1.26 1.47-2.11.13-.36.2-.76.2-1.2 0-1.16-.4-2.09-1.2-2.81-.8-.71-1.78-1.07-2.94-1.07-2.14 0-4.13-.39-5.98-1.17-1.85-.78-3.48-1.85-4.88-3.21-1.4-1.36-2.51-2.95-3.31-4.78-.8-1.83-1.2-3.81-1.2-5.95 0-.76.06-1.51.17-2.27.11-.76.28-1.51.5-2.27.49-1.56 1.2-3.01 2.14-4.34.94-1.34 2.05-2.48 3.34-3.44s2.72-1.7 4.28-2.24c1.56-.54 3.21-.8 4.95-.8 2.14 0 4.13.4 5.98 1.2 1.85.8 3.48 1.9 4.88 3.31 1.4 1.4 2.51 3.04 3.31 4.91.8 1.87 1.2 3.86 1.2 5.95H344.4c0-1.16-.4-2.14-1.2-2.94-.8-.8-1.78-1.2-2.94-1.2-.94 0-1.76.28-2.47.83-.71.56-1.2 1.26-1.47 2.11-.13.31-.2.71-.2 1.2 0 1.16.4 2.1 1.2 2.81.8.71 1.78 1.07 2.94 1.07 2.14 0 4.13.39 5.98 1.17 1.85.78 3.48 1.85 4.88 3.21 1.4 1.36 2.51 2.95 3.31 4.78.8 1.83 1.2 3.79 1.2 5.88ZM402.26 81.79c0 .8-.06 1.58-.17 2.34-.11.76-.28 1.52-.5 2.27a15.54 15.54 0 0 1-2.14 4.34c-.94 1.34-2.05 2.49-3.34 3.44-1.29.96-2.72 1.7-4.28 2.24-1.56.53-3.21.8-4.95.8-2.14 0-4.13-.4-5.98-1.2-1.85-.8-3.48-1.91-4.88-3.31-1.4-1.4-2.51-3.04-3.31-4.91-.8-1.87-1.2-3.88-1.2-6.02h11.23c0 1.16.4 2.15 1.2 2.97.8.83 1.78 1.24 2.94 1.24.94 0 1.76-.28 2.47-.83.71-.56 1.2-1.26 1.47-2.11.13-.36.2-.76.2-1.2 0-1.16-.4-2.09-1.2-2.81-.8-.71-1.78-1.07-2.94-1.07-2.14 0-4.13-.39-5.98-1.17-1.85-.78-3.48-1.85-4.88-3.21-1.4-1.36-2.51-2.95-3.31-4.78-.8-1.83-1.2-3.81-1.2-5.95 0-.76.06-1.51.17-2.27.11-.76.28-1.51.5-2.27.49-1.56 1.2-3.01 2.14-4.34.94-1.34 2.05-2.48 3.34-3.44s2.72-1.7 4.28-2.24c1.56-.54 3.21-.8 4.95-.8 2.14 0 4.13.4 5.98 1.2 1.85.8 3.48 1.9 4.88 3.31 1.4 1.4 2.51 3.04 3.31 4.91.8 1.87 1.2 3.86 1.2 5.95h-11.23c0-1.16-.4-2.14-1.2-2.94-.8-.8-1.78-1.2-2.94-1.2-.94 0-1.76.28-2.47.83-.71.56-1.2 1.26-1.47 2.11-.13.31-.2.71-.2 1.2 0 1.16.4 2.1 1.2 2.81.8.71 1.78 1.07 2.94 1.07 2.14 0 4.13.39 5.98 1.17 1.85.78 3.48 1.85 4.88 3.21s2.51 2.95 3.31 4.78c.8 1.83 1.2 3.79 1.2 5.88ZM428.65 77.98h-9.22l-6.68 19.25h-12.1l17.25-49.74h12.3l17.25 49.74h-12.1l-6.69-19.25ZM484.99 47.5v49.74h-11.37l-14.04-27.81v27.81h-11.23V47.5h11.43l13.97 27.74V47.5h11.23ZM520.62 58.73h-11.3v38.51h-11.23V58.73h-11.3V47.5h33.82v11.23ZM541.37 77.98h-9.22l-6.69 19.25h-12.1l17.25-49.74h12.3l17.25 49.74h-12.1l-6.68-19.25ZM599 47.5v49.74h-11.36L573.6 69.43v27.81h-11.23V47.5h11.43l13.97 27.74V47.5H599ZM628.76 77.98h-9.22l-6.69 19.25h-12.1L618 47.49h12.3l17.25 49.74h-12.1l-6.69-19.25Z" class="cls-3"/></g><g id="simb2"><path d="M25.75 25.75h93.23v93.23H25.75z" style="stroke-width:9.11px;fill:none;stroke:#231f20;stroke-miterlimit:10" transform="rotate(-45 72.368 72.374)"/><path d="m26.63 49.9 45.4 45.4 22.73-22.74M72.07 49.62l24.68-24.69" class="cls-1"/></g></g></svg>